<?xml version="1.0" encoding="iso-8859-1"?>
<!-- Generator: Adobe Illustrator 19.0.0, SVG Export Plug-In . SVG Version: 6.00 Build 0)  -->
<svg xmlns="http://www.w3.org/2000/svg" xmlns:xlink="http://www.w3.org/1999/xlink" version="1.1" id="Layer_1" x="0px" y="0px" viewBox="0 0 491.485 491.485" style="enable-background:new 0 0 491.485 491.485;" xml:space="preserve" width="512" height="512">
<g>
	<path style="fill:#DD3352;" d="M484.215,465.286l-0.01,0.01c-1.629,2.465-3.52,4.794-5.693,6.967l-5.024,5.035   c-8.68,8.669-20.002,12.962-31.303,12.962c-12.398,0-24.765-5.17-33.56-15.375l-95.947-111.29l23.355-23.752l28.295-28.797   l0.157,0.136L476.11,407.4C493.282,422.211,496.196,447.122,484.215,465.286z"/>
	<path style="fill:#FC74AF;" d="M484.215,465.286l-0.01,0.01c-7.374,4.857-15.856,7.27-24.326,7.27   c-12.398,0-24.765-5.17-33.56-15.375L330.372,345.89l23.355-23.752l10.758-10.957L476.11,407.4   C493.282,422.211,496.196,447.122,484.215,465.286z"/>
	<circle style="fill:#3E5268;" cx="199.007" cy="200.232" r="199.007"/>
	<path style="fill:#4CBFD4;" d="M344.433,200.231c0,80.318-65.104,145.432-145.423,145.432c-5.894,0-11.713-0.35-17.428-1.041   c-72.106-8.6-128.004-69.968-128.004-144.392c0-74.424,55.898-135.782,128.004-144.392c5.715-0.681,11.534-1.031,17.428-1.031   C279.328,54.808,344.433,119.913,344.433,200.231z"/>
	<path style="fill:#96EFFF;" d="M309.586,200.231c0,74.424-55.898,135.791-128.004,144.392   c-72.106-8.6-128.004-69.968-128.004-144.392c0-74.424,55.898-135.782,128.004-144.392   C253.688,64.45,309.586,125.807,309.586,200.231z"/>
	<path style="fill:#27394C;" d="M199.007,353.159c-84.324,0-152.927-68.603-152.927-152.927S114.683,47.305,199.007,47.305   s152.927,68.603,152.927,152.927S283.331,353.159,199.007,353.159z M199.007,62.305c-76.053,0-137.927,61.874-137.927,137.927   s61.874,137.927,137.927,137.927s137.927-61.874,137.927-137.927S275.06,62.305,199.007,62.305z"/>
	<g>
		<path style="fill:#3E5268;" d="M286.163,199.291l6.115-9.813c1.741-2.793,2.764-6.002,2.777-9.293c0-0.025,0-0.049,0-0.074    c0-4.125-1.29-7.958-3.483-11.111c4.044-3.571,6.599-8.786,6.599-14.607c0-8.394-5.309-15.548-12.75-18.289    c0.405-1.564,0.623-3.203,0.623-4.892c0-10.768-8.73-19.492-19.492-19.492c-1.508,0-2.972,0.174-4.387,0.505    c-0.081-10.693-8.774-19.336-19.486-19.336c-3.247,0-6.312,0.804-9.004,2.206c-1.739-8.98-9.64-15.759-19.131-15.759    c-5.839,0-11.073,2.567-14.644,6.63c-3.571-4.063-8.805-6.63-14.644-6.63c-9.491,0-17.392,6.78-19.131,15.759    c-2.692-1.402-5.758-2.206-9.004-2.206c-10.712,0-19.405,8.643-19.486,19.336c-1.415-0.33-2.879-0.505-4.387-0.505    c-10.762,0-19.492,8.724-19.492,19.492c0,1.689,0.218,3.328,0.623,4.892c-7.44,2.742-12.75,9.896-12.75,18.289    c0,5.82,2.555,11.036,6.599,14.607c-2.193,3.153-3.483,6.985-3.483,11.111c0,0.025,0,0.049,0,0.074    c0.012,3.291,1.036,6.5,2.777,9.293l6.114,9.813"/>
		<path style="fill:#27394C;" d="M200.236,95.095c-2.692-1.402-5.758-2.206-9.004-2.206c-10.712,0-19.405,8.643-19.486,19.336    c-1.415-0.33-2.879-0.505-4.387-0.505c-10.762,0-19.492,8.724-19.492,19.492c0,1.689,0.218,3.328,0.623,4.892    c-7.44,2.742-12.75,9.896-12.75,18.289c0,5.82,2.555,11.036,6.599,14.607c-2.193,3.153-3.483,6.985-3.483,11.111v0.075    c0.012,3.29,1.034,6.499,2.773,9.291l6.119,9.815h-34.111l-6.113-9.815c-1.739-2.792-2.767-6.001-2.779-9.291v-0.075    c0-4.125,1.29-7.958,3.483-11.111c-4.044-3.571-6.599-8.786-6.599-14.607c0-8.394,5.309-15.548,12.75-18.289    c-0.405-1.564-0.623-3.203-0.623-4.892c0-10.768,8.73-19.492,19.492-19.492c1.508,0,2.972,0.174,4.387,0.505    c0.081-10.693,8.774-19.336,19.486-19.336c3.247,0,6.312,0.804,9.004,2.206c1.739-8.98,9.64-15.759,19.131-15.759    c4.979,0,9.522,1.869,12.961,4.948C197.962,88.297,198.572,92.229,200.236,95.095z"/>
		<path style="fill:#C99061;" d="M301.256,222.454c0,12.746-9.816,23.192-22.298,24.191c-0.651,0.055-1.313,0.083-1.975,0.083    c-1.7,0-3.355-0.171-4.955-0.508H125.824c-1.6,0.337-3.256,0.508-4.955,0.508h-0.017c-13.403-0.011-24.257-10.87-24.257-24.273    c0-12.636,9.656-23.015,21.995-24.158c0.751-0.077,1.512-0.11,2.279-0.11c1.021,0,2.02,0.061,3.007,0.182h150.099    c0.988-0.121,1.987-0.182,3.007-0.182c1.44,0,2.853,0.127,4.221,0.37C292.598,200.548,301.256,210.491,301.256,222.454z"/>
		<path style="fill:#A86340;" d="M281.204,198.556v30.746c0,5.97-0.778,11.781-2.246,17.343c-0.651,0.055-1.313,0.083-1.975,0.083    c-1.7,0-3.355-0.171-4.955-0.508H125.824c-1.6,0.337-3.256,0.508-4.955,0.508h-0.017c-1.479-5.59-2.262-11.422-2.262-17.426    v-31.005c0.751-0.077,1.512-0.11,2.279-0.11c1.021,0,2.02,0.061,3.007,0.182h150.099c0.988-0.121,1.987-0.182,3.007-0.182    C278.423,198.186,279.836,198.313,281.204,198.556z"/>
		<path style="fill:#A86340;" d="M288.023,227.859c-1.804,0-3.523-1.051-4.288-2.811c-1.953-4.49-7.85-3.055-8.516-2.877    c-2.482,0.705-5.051-0.741-5.757-3.224c-0.705-2.483,0.753-5.072,3.236-5.777c4.946-1.404,15.409-1.508,19.608,8.15    c1.029,2.367-0.055,5.12-2.423,6.149C289.277,227.734,288.645,227.859,288.023,227.859z"/>
		<path style="fill:#A86340;" d="M112.323,227.858c-0.623,0-1.255-0.125-1.863-0.39c-2.367-1.03-3.45-3.784-2.42-6.151    c2.375-5.455,8.548-10.516,18.749-8.358c2.525,0.534,4.139,3.014,3.605,5.54c-0.534,2.525-3.013,4.139-5.54,3.605    c-2.382-0.504-6.619-0.791-8.244,2.943C115.845,226.808,114.127,227.858,112.323,227.858z"/>
		<path style="fill:#A86340;" d="M273.973,188.444v49.434c0,36.099-25.823,66.166-60.009,72.734    c-4.549,0.879-9.254,1.34-14.071,1.34c-40.91,0-74.067-33.164-74.067-74.073V188.45c3.558,3.832,8.637,6.225,14.276,6.225    c5.421,0,10.326-2.212,13.859-5.789c3.477-3.521,5.627-8.356,5.627-13.697c0-1.115-0.093-2.206-0.274-3.272    c0.081,0.006,0.162,0.006,0.243,0.006c6.661,0,12.538-3.34,16.058-8.444c2.667,1.371,5.683,2.15,8.892,2.15    c6.256,0,11.827-2.954,15.392-7.54c3.564,4.586,9.129,7.54,15.392,7.54c3.203,0,6.225-0.779,8.892-2.15    c3.515,5.104,9.397,8.444,16.059,8.444c0.081,0,0.162,0,0.243-0.006c-0.181,1.066-0.28,2.156-0.28,3.272    c0,10.762,8.73,19.486,19.492,19.486C265.336,194.675,270.421,192.276,273.973,188.444z"/>
		<path style="fill:#C99061;" d="M273.973,188.444v49.434c0,36.099-25.823,66.166-60.009,72.734    c-34.18-6.568-60.003-36.635-60.003-72.734v-48.992c3.477-3.521,5.627-8.356,5.627-13.697c0-1.115-0.093-2.206-0.274-3.272    c0.081,0.006,0.162,0.006,0.243,0.006c6.661,0,12.538-3.34,16.058-8.444c2.667,1.371,5.683,2.15,8.892,2.15    c6.256,0,11.827-2.954,15.392-7.54c3.564,4.586,9.129,7.54,15.392,7.54c3.203,0,6.225-0.779,8.892-2.15    c3.515,5.104,9.397,8.444,16.059,8.444c0.081,0,0.162,0,0.243-0.006c-0.181,1.066-0.28,2.156-0.28,3.272    c0,10.762,8.73,19.486,19.492,19.486C265.336,194.675,270.421,192.276,273.973,188.444z"/>
		<path style="fill:#965D36;" d="M199.898,266.525c-8.951,0-17.367-3.486-23.696-9.815c-1.825-1.825-1.825-4.784,0-6.61    c1.825-1.825,4.785-1.825,6.609,0c4.564,4.564,10.632,7.077,17.086,7.077c6.454,0,12.522-2.513,17.086-7.077    c1.825-1.825,4.784-1.825,6.609,0c1.825,1.825,1.825,4.784,0,6.61C217.265,263.039,208.849,266.525,199.898,266.525z"/>
		<g>
			<g>
				<path style="fill:#172635;" d="M167.628,232.562c-2.581,0-4.674-2.092-4.674-4.674V209.68c0-2.581,2.092-4.674,4.674-4.674      s4.674,2.092,4.674,4.674v18.208C172.302,230.47,170.209,232.562,167.628,232.562z"/>
				<path style="fill:#172635;" d="M232.17,232.562c-2.581,0-4.674-2.092-4.674-4.674V209.68c0-2.581,2.092-4.674,4.674-4.674      s4.674,2.092,4.674,4.674v18.208C236.843,230.47,234.751,232.562,232.17,232.562z"/>
			</g>
		</g>
	</g>
</g>















</svg>
