<svg height="504pt" viewBox="-60 0 504 504" width="504pt" xmlns="http://www.w3.org/2000/svg"><path d="m192 0c39.761719 0 72 32.230469 72 72l-24-16.238281s-16.078125 8-44 8-52-8-52-8l-24 16.238281c0-39.769531 32.238281-72 72-72zm0 0" fill="#656d78"/><path d="m192 184c11.511719 0 22.398438-2.71875 32-7.519531v23.519531l-16 16-16-8-16 8-16-16v-23.519531c9.601562 4.800781 20.480469 7.519531 32 7.519531zm0 0" fill="#f5f7fa"/><path d="m240 55.761719 24 16.238281v40c0 28.230469-16.320312 52.71875-40 64.480469-9.601562 4.808593-20.488281 7.519531-32 7.519531-11.519531 0-22.398438-2.71875-32-7.519531-23.679688-11.761719-40-36.242188-40-64.480469v-40l24-16.238281s24.078125 8 52 8 44-8 44-8zm0 0" fill="#eac6bb"/><path d="m240 55.761719s-3.289062 1.558593-9.175781 3.300781c.761719 4.195312 1.175781 8.511719 1.175781 12.9375v40c0 28.230469-16.320312 52.71875-40 64.480469-5.007812 2.503906-10.375 4.414062-15.992188 5.695312.207032.046875.433594.0625.640626.113281 2.351562.511719 4.742187.949219 7.175781 1.238282 2.6875.304687 5.40625.480468 8.167969.480468 11.511718 0 22.398437-2.71875 32-7.519531 23.679687-11.761719 40-36.242187 40-64.480469v-40zm0 0" fill="#d3b1a9"/><path d="m183.527344.535156c-2.535156.3125-5.046875.746094-7.503906 1.296875 0 .007813-.007813.007813-.007813.007813 27.894531 6.351562 49.65625 28.871094 54.808594 57.214844 5.886719-1.734376 9.175781-3.292969 9.175781-3.292969l24 16.238281c0-39.769531-32.238281-72-72-72-2.726562 0-5.414062.167969-8.054688.480469-.136718.015625-.28125.039062-.417968.054687zm0 0" fill="#434a54"/><path d="m364 344c11.039062 0 20 8.960938 20 20s-8.960938 20-20 20h-4c-53.128906 0-96-42.960938-96-96v112h-144v-112c0 53.039062-42.960938 96-96 96h-4c-11.039062 0-20-8.960938-20-20s8.960938-20 20-20h4c30.960938 0 56-25.039062 56-56v-16c0-39.769531 32.160156-72 72-72h8l16 16 16-8 16 8 16-16h8c39.761719 0 72 32.230469 72 72v16c0 30.960938 25.039062 56 56 56zm0 0" fill="#5d9cec"/><path d="m320 400c17.679688 0 32 14.320312 32 32s-14.320312 32-32 32h-128c-17.679688 0-32-14.320312-32-32s14.320312-32 32-32zm0 0" fill="#656d78"/><path d="m120 400h72c-17.679688 0-32 14.320312-32 32s14.320312 32 32 32h-120c-17.679688 0-32-14.320312-32-32s14.320312-32 32-32zm0 0" fill="#434a54"/><g fill="#4a89dc"><path d="m192.238281 256c-4.421875 0-8.039062-3.574219-8.039062-8s3.535156-8 7.953125-8h.085937c4.417969 0 8 3.574219 8 8s-3.582031 8-8 8zm0 0"/><path d="m192.238281 296c-4.421875 0-8.039062-3.574219-8.039062-8s3.535156-8 7.953125-8h.085937c4.417969 0 8 3.574219 8 8s-3.582031 8-8 8zm0 0"/><path d="m192.238281 336c-4.421875 0-8.039062-3.574219-8.039062-8s3.535156-8 7.953125-8h.085937c4.417969 0 8 3.574219 8 8s-3.582031 8-8 8zm0 0"/><path d="m192.238281 376c-4.421875 0-8.039062-3.574219-8.039062-8s3.535156-8 7.953125-8h.085937c4.417969 0 8 3.574219 8 8s-3.582031 8-8 8zm0 0"/></g><path d="m312 504h-240c-4.425781 0-8-3.574219-8-8s3.574219-8 8-8h240c4.425781 0 8 3.574219 8 8s-3.574219 8-8 8zm0 0" fill="#434a54"/></svg>